<svg xmlns="http://www.w3.org/2000/svg" width="455" height="512" xmlns:xlink="http://www.w3.org/1999/xlink"><defs><path id="a" d="M250.02 6.204l182.426 105.388c14.316 8.275 22.51 22.48 22.51 39.03v210.755c0 16.55-8.193 30.755-22.51 39.03L250.02 505.797c-14.315 8.274-30.713 8.274-45.04 0L22.564 400.406C8.237 392.134.045 377.93.045 361.378V150.624c0-16.55 8.192-30.755 22.52-39.03L204.98 6.203c14.327-8.275 30.724-8.275 45.04 0z"/></defs><use fill="#DCE2E9" fill-rule="evenodd" xlink:href="#a" overflow="visible" clip-rule="evenodd"/><clipPath id="b"><use xlink:href="#a" overflow="visible"/></clipPath><g clip-path="url(#b)"><path fill="#C2C2C4" fill-rule="evenodd" d="M285.265 447.926h-183.7" clip-rule="evenodd"/><path fill="#F3F3F3" fill-rule="evenodd" d="M422.838 345.676v26.776c0 13.47-12.145 24.485-26.99 24.485H-9.018c-14.846 0-26.99-11.016-26.99-24.485v-26.776H422.837z" clip-rule="evenodd"/><circle cx="193.416" cy="370.237" r="8.428" fill="#B6B6B8"/><path fill="#C2C2C4" fill-rule="evenodd" d="M101.565 447.926l31.41-12.473v-38.516h113.357v38.516h.003l38.93 12.473" clip-rule="evenodd"/><path fill="#B6B6B8" fill-rule="evenodd" d="M246.335 435.453l-113.357-38.516h113.357" clip-rule="evenodd"/><path fill="#ECF0F1" fill-rule="evenodd" d="M132.975 435.453h113.357l38.93 12.473v5.372h-183.7v-5.372l31.41-12.473" clip-rule="evenodd"/></g><path fill="#565656" fill-rule="evenodd" d="M-11.523 68.702h409.88c13.465 0 24.48 11.02 24.48 24.485v252.49H-36.004V93.186c0-13.466 11.016-24.485 24.482-24.485z" clip-path="url(#b)" clip-rule="evenodd"/><path fill="#00A1C9" fill-rule="evenodd" d="M-19.382 329.05h425.594V93.184c0-4.292-3.567-7.86-7.86-7.86H-11.525c-4.29 0-7.86 3.568-7.86 7.86V329.05h.004z" clip-path="url(#b)" clip-rule="evenodd"/><defs><path id="c" d="M234.927-50.388l195.86 113.15c15.372 8.885 24.17 24.135 24.17 41.905v226.277c0 17.77-8.798 33.02-24.17 41.905L234.928 486"/></defs><clipPath id="d"><use xlink:href="#c" overflow="visible"/></clipPath><g fill-rule="evenodd" clip-path="url(#d)" clip-rule="evenodd"><path fill="#565656" d="M-11.523 68.702h409.88c13.465 0 24.48 11.02 24.48 24.485v252.49H-36.004V93.186c0-13.466 11.016-24.485 24.482-24.485z"/><path fill="#00A1C9" d="M-19.382 329.05h425.594V93.184c0-4.292-3.567-7.86-7.86-7.86H-11.525c-4.29 0-7.86 3.568-7.86 7.86V329.05h.004z"/></g><path fill="#00A1C9" fill-rule="evenodd" d="M212 85.325h49V329.05h-49z" clip-rule="evenodd"/><g fill-rule="evenodd" clip-rule="evenodd"><path fill="#C2CBD6" d="M211.997 74.746c1.527 0 2.76 1.24 2.76 2.76 0 1.522-1.233 2.755-2.76 2.755-1.52 0-2.752-1.232-2.752-2.753 0-1.52 1.232-2.76 2.752-2.76z"/><path fill="#6C7C8C" d="M211.997 76.39c.616 0 1.116.5 1.116 1.117s-.5 1.117-1.116 1.117c-.61 0-1.11-.5-1.11-1.117s.5-1.117 1.11-1.117z"/></g><defs><path id="e" d="M250.02 6.204l182.426 105.388c14.316 8.275 22.51 22.48 22.51 39.03v210.755c0 16.55-8.193 30.755-22.51 39.03L250.02 505.797c-14.315 8.274-30.713 8.274-45.04 0L22.564 400.406C8.237 392.134.045 377.93.045 361.378V150.624c0-16.55 8.192-30.755 22.52-39.03L204.98 6.203c14.327-8.275 30.724-8.275 45.04 0z"/></defs><clipPath id="f"><use xlink:href="#e" overflow="visible"/></clipPath><g clip-path="url(#f)"><path fill="#FFF" fill-rule="evenodd" d="M0 100h391v212H0z" clip-rule="evenodd"/><path fill="#757575" fill-rule="evenodd" d="M0 312h28V117.333h363V100H0" clip-rule="evenodd"/><path fill="#84B222" fill-rule="evenodd" d="M0 100h28v17.333H0z" clip-rule="evenodd"/><path fill="#84B222" d="M246 172.54c5.862-5.43 13.367-10.382 22.982-14.087-8.636 3.088-16.434 7.928-22.98 14.087zM228.014 239.685c-1.48-5.22-2.466-11.02-2.77-17.472.144 6.062 1.096 11.922 2.77 17.472zM297.87 154.943l-3.04 29.937c18.102 1.832 32.23 17.117 32.23 35.702 0 19.82-16.068 35.887-35.888 35.887-3.713 0-7.293-.565-10.66-1.612l-8.982 28.768c6.213 1.938 12.82 2.983 19.672 2.983 36.45 0 66-29.55 66-66 0-34.202-26.013-62.325-59.333-65.667z"/><path fill="#00A1C9" d="M269.127 158.395c-.05.02-.096.04-.145.058l.148-.05-.003-.008zM246 172.54c-19.697 18.252-20.798 41.923-20.798 41.923l.293.027c1.517-16.495 9.103-31.224 20.506-41.95z"/><path fill="#00A1C9" d="M225.495 214.49l29.948 2.788c1.294-14.165 10.814-25.945 23.746-30.526l-10.06-28.35c-.05.018-.1.033-.148.05-9.615 3.706-17.12 8.657-22.98 14.088-11.404 10.726-18.99 25.455-20.507 41.95z"/><path fill="#621EAB" d="M277.965 155.938c1.058-.215 2.125-.405 3.2-.57-1.04.162-2.1.344-3.2.57zM297.87 154.943s-6.914-1.087-16.646.417c3.254-.494 6.586-.75 9.978-.75 2.25-.002 4.474.113 6.667.333zM271.235 157.69c-.698.222-1.4.453-2.107.706l.003.008c.697-.248 1.397-.49 2.105-.713z"/><path fill="#621EAB" d="M279.19 186.752c3.747-1.328 7.78-2.057 11.982-2.057 1.235 0 2.455.063 3.657.184l3.038-29.938c-2.193-.22-4.416-.335-6.667-.335-3.39 0-6.723.257-9.977.75l-.058.01c-1.076.164-2.143.354-3.2.57l-.114.022c-1.024.21-2.04.445-3.047.703-.103.026-.208.056-.31.083-.904.236-1.8.49-2.686.763-.19.057-.382.12-.573.18-.708.224-1.408.465-2.105.712l10.06 28.35z"/><path fill="#F04652" d="M225.495 214.49l-.293-.028c-.094 2.682-.077 5.265.04 7.75-.012-.534-.04-1.066-.04-1.604 0-2.064.108-4.103.293-6.12zM228.014 239.685c10.115 35.657 43.516 43.94 43.516 43.94-20.826-6.494-37.212-23.03-43.516-43.94z"/><path fill="#F04652" d="M255.286 220.58c0-1.113.058-2.214.157-3.302l-29.948-2.79c-.185 2.017-.293 4.056-.293 6.12 0 .538.028 1.07.04 1.605.306 6.452 1.29 12.253 2.772 17.472 6.304 20.91 22.69 37.446 43.516 43.94l8.98-28.768c-14.613-4.54-25.224-18.17-25.224-34.276z"/><path fill="#FFC42E" d="M297.87 154.943l-3.04 29.937s9.953 1.105 16.7 6.15l17.857-24.253s-11.73-9.918-31.518-11.834z"/><g><path fill="#84B222" d="M60.167 161.082h11.5v33.478h-11.5z"/><path fill="#FFC42E" d="M71.667 174.445h11.5v20.115h-11.5z"/><path fill="#F04652" d="M140.667 161.082h11.5v33.478h-11.5z"/><path fill="#FFC42E" d="M152.167 174.445h11.5v20.115h-11.5z"/><path fill="#621EAB" d="M163.667 156.122h11.5v38.438h-11.5z"/><path fill="#00A1C9" d="M175.167 150.977h11.5v43.582h-11.5zM83.167 189.77h11.5v4.79h-11.5z"/><path fill="#F04652" d="M94.667 181.855h11.5v12.704h-11.5z"/><path fill="#621EAB" d="M106.167 148.583h11.5v45.977h-11.5z"/><path fill="#00A1C9" d="M117.667 158.917h11.5v35.643h-11.5z"/><path fill="#84B222" d="M129.167 150.977h11.5v43.582h-11.5z"/><path fill="none" stroke="#757575" stroke-width="1.78" stroke-miterlimit="10" d="M60.167 139.052v55.507H196" clip-rule="evenodd" stroke-linecap="round" stroke-linejoin="round"/><g><path fill="none" stroke="#D9DDDD" stroke-width="3" stroke-miterlimit="10" d="M83.167 221.32h61.166" stroke-linecap="round" stroke-linejoin="round"/><path fill="#621EAB" d="M72.49 223.82c0 1.105-.895 2-2 2h-8.323c-1.105 0-2-.895-2-2v-5c0-1.105.895-2 2-2h8.323c1.105 0 2 .895 2 2v5z"/></g><g><path fill="none" stroke="#D9DDDD" stroke-width="3" stroke-miterlimit="10" d="M83.167 237.24h75.5" stroke-linecap="round" stroke-linejoin="round"/><path fill="#00A1C9" d="M72.49 239.74c0 1.106-.895 2-2 2h-8.323c-1.105 0-2-.894-2-2v-5c0-1.104.895-2 2-2h8.323c1.105 0 2 .896 2 2v5z"/></g><g><path fill="none" stroke="#D9DDDD" stroke-width="3" stroke-miterlimit="10" d="M83.167 253.162h86.25" stroke-linecap="round" stroke-linejoin="round"/><path fill="#F04652" d="M72.49 255.662c0 1.105-.895 2-2 2h-8.323c-1.105 0-2-.895-2-2v-5c0-1.105.895-2 2-2h8.323c1.105 0 2 .895 2 2v5z"/></g><g><path fill="none" stroke="#D9DDDD" stroke-width="3" stroke-miterlimit="10" d="M83.167 269.083h61.166" stroke-linecap="round" stroke-linejoin="round"/><path fill="#84B222" d="M72.49 271.583c0 1.105-.895 2-2 2h-8.323c-1.105 0-2-.895-2-2v-5c0-1.105.895-2 2-2h8.323c1.105 0 2 .895 2 2v5z"/></g><g><path fill="none" stroke="#D9DDDD" stroke-width="3" stroke-miterlimit="10" d="M83.167 285.004h46" stroke-linecap="round" stroke-linejoin="round"/><path fill="#FFC42E" d="M72.49 287.504c0 1.105-.895 2-2 2h-8.323c-1.105 0-2-.895-2-2v-5c0-1.105.895-2 2-2h8.323c1.105 0 2 .895 2 2v5z"/></g></g></g></svg>